<svg width="16" height="16" viewBox="0 0 16 16" fill="none" xmlns="http://www.w3.org/2000/svg">
<path d="M0.0125082 7.73043C0.0144168 8.17121 0.212595 8.59014 0.557052 8.88154L8.01997 15.1663C8.42063 15.4802 9.00825 15.4329 9.34901 15.0594C9.68976 14.686 9.66119 14.1205 9.28438 13.7806L3.51846 8.92599C3.46669 8.88204 3.44856 8.81198 3.47287 8.74987C3.49718 8.68776 3.55889 8.64649 3.628 8.64613L15.0373 8.62754C15.5675 8.62668 15.9967 8.21336 15.9958 7.70438C15.995 7.19539 15.5645 6.78348 15.0343 6.78434L3.627 6.80293C3.55793 6.80241 3.4963 6.7612 3.47185 6.69918C3.4474 6.63717 3.46515 6.5671 3.51655 6.52279L9.26661 1.64941C9.54052 1.43631 9.67074 1.09623 9.60581 0.763581C9.54087 0.430932 9.29122 0.159241 8.95553 0.0558817C8.61984 -0.0474779 8.25212 0.0341247 7.99769 0.26844L0.553963 6.57754C0.210069 6.86985 0.0129769 7.28951 0.0125082 7.73043Z" fill="#7A95AB"/>
</svg>
