<svg width="16" height="20" viewBox="0 0 16 20" fill="none" xmlns="http://www.w3.org/2000/svg">
<path fill-rule="evenodd" clip-rule="evenodd" d="M2.00332 1C1.4297 1 0.999996 1.47545 1 1.99999V18.506C1 18.533 1.03595 18.6264 1.1755 18.6916C1.30784 18.7535 1.38955 18.7209 1.42162 18.6919L7.42744 14.5648C7.78569 14.3011 8.2668 14.3103 8.61608 14.5717L14.5455 18.6407C14.5841 18.6696 14.6191 18.7012 14.6312 18.7118C14.6343 18.7145 14.6952 18.7567 14.8304 18.6893C14.9667 18.6213 14.9954 18.5294 14.9954 18.506V2C14.9954 1.48079 14.5681 1 13.9876 1H2.00332ZM1.19818e-10 2.00001C-1.15632e-05 0.964544 0.836936 0 2.00332 0H13.9876C15.1548 0 15.9954 0.963587 15.9954 2V18.506C15.9954 19.0249 15.6339 19.406 15.2766 19.5842C14.9181 19.7629 14.3817 19.8245 13.9704 19.4624L13.9577 19.4512L13.9493 19.4439C13.9472 19.4421 13.9455 19.4408 13.9455 19.4408L8.01711 15.3724C6.15693 16.7414 2.09284 19.4331 2.09284 19.4331C1.64062 19.7734 1.13401 19.776 0.752167 19.5976C0.37753 19.4226 1.19818e-10 19.0355 1.19818e-10 18.506V2.00001Z" fill="#7A95AB"/>
</svg>
