<svg width="16" height="16" viewBox="0 0 16 16" fill="none" xmlns="http://www.w3.org/2000/svg">
<path d="M7.98735 11.3333C7.69327 11.3336 7.41328 11.2021 7.21893 10.9722L2.85868 5.80942C2.57206 5.45361 2.61055 4.92452 2.94537 4.61776C3.28019 4.311 3.78887 4.33877 4.09107 4.68031L7.90379 9.19492C7.92489 9.21999 7.95534 9.23437 7.98735 9.23437C8.01935 9.23437 8.0498 9.21999 8.0709 9.19492L11.8836 4.68031C12.075 4.44266 12.375 4.33167 12.6675 4.39027C12.9599 4.44887 13.199 4.66788 13.2921 4.96255C13.3852 5.25722 13.3178 5.58131 13.116 5.80942L8.75709 10.9703C8.56241 11.2008 8.28204 11.333 7.98735 11.3333Z" fill="#333333"/>
</svg>
