<svg width="18" height="18" viewBox="0 0 18 18" fill="none" xmlns="http://www.w3.org/2000/svg">
<path fill-rule="evenodd" clip-rule="evenodd" d="M0 7.50671C0 8.25573 0.399624 8.90111 1 9.24398V15.0067C1 16.4028 2.10397 17.5067 3.5 17.5067H14.5C15.8512 17.5067 17 16.4163 17 15.0067V9.23522C17.5878 8.89358 18 8.25952 18 7.50671V5.50672C18 4.44 17.13 3.50672 16 3.50672H14.28C14.5167 3.28632 14.65 2.71032 14.65 2.19C14.65 1.18741 13.8611 -1.03345e-06 12.4 0C11.0278 0 10.6964 0.827641 10.0285 1.87781C9.68982 2.4104 9.3406 2.93628 9 3.46766C8.86098 3.25077 8.27688 2.17174 8.12109 1.87781C7.74989 1.13171 6.95745 0 5.59591 0C4.23438 0 3.34766 1.15906 3.34766 2.19031C3.34766 2.6735 3.44971 3.14604 3.72 3.50672H2C0.86505 3.50672 0 4.44357 0 5.50672V7.50671ZM8.50002 9.51275L8.5 9.50671H2V15.0067C2 15.8505 2.65625 16.5067 3.5 16.5067H8.52096L8.50002 9.51275ZM14.5 16.5067C15.3125 16.5067 16 15.8505 16 15.0067V9.50671H9.5L9.5459 16.5067H14.5ZM12.4 3.50672C12.7622 3.50672 13.68 3.17859 13.68 2.25672C13.68 1.63953 13.3258 0.989999 12.4 0.989999C11.61 0.989999 11.636 1.21268 11.2642 1.87781L10.25 3.50672H12.4ZM6.85156 1.87781C6.66797 1.56531 6.33245 0.998906 5.59591 0.998906C4.85938 0.998906 4.31641 1.60047 4.31641 2.25281C4.31641 2.83094 4.81624 3.50672 5.6 3.50672H7.74989L6.85156 1.87781ZM2 4.50672C1.4375 4.50672 1 4.97547 1 5.50672V7.50671C1 8.06921 1.4375 8.50671 2 8.50671H16C16.5312 8.50671 17 8.06921 17 7.50671V5.50672C17 4.97547 16.5312 4.50672 16 4.50672H2Z" fill="#7A95AB"/>
</svg>
