<svg width="30" height="30" viewBox="0 0 30 30" fill="none" xmlns="http://www.w3.org/2000/svg">
<path fill-rule="evenodd" clip-rule="evenodd" d="M15 0C6.71573 0 0 6.71573 0 15C0 23.2843 6.71573 30 15 30C23.2843 30 30 23.2843 30 15C30 6.71573 23.2843 0 15 0ZM8.06755 12.7099H11.0892V21.7886H8.06755V12.7099ZM11.2882 9.9015C11.2686 9.01133 10.632 8.33333 9.59834 8.33333C8.56466 8.33333 7.88888 9.01133 7.88888 9.9015C7.88888 10.7732 8.54469 11.4707 9.55912 11.4707H9.57843C10.632 11.4707 11.2882 10.7732 11.2882 9.9015ZM18.5073 12.4967C20.4957 12.4967 21.9863 13.7945 21.9863 16.5831L21.9862 21.7886H18.9647V16.9315C18.9647 15.7115 18.5274 14.879 17.4336 14.879C16.5988 14.879 16.1016 15.4402 15.8832 15.9823C15.8033 16.1765 15.7837 16.4472 15.7837 16.7185V21.7888H12.7617C12.7617 21.7888 12.8015 13.562 12.7617 12.7101H15.7837V13.996C16.1847 13.3779 16.903 12.4967 18.5073 12.4967Z" fill="#7A95AB"/>
</svg>
