<svg width="16" height="16" viewBox="0 0 16 16" fill="none" xmlns="http://www.w3.org/2000/svg">
<path fill-rule="evenodd" clip-rule="evenodd" d="M12.0219 10.21L14.9947 13.1828C15.4944 13.6827 15.4944 14.4929 14.9947 14.9927C14.4913 15.4838 13.6881 15.4838 13.1847 14.9927L10.2119 12.0206C7.40536 13.8969 3.63316 13.3383 1.49086 10.729C-0.651438 8.11978 -0.465075 4.311 1.92172 1.92336C4.30852 -0.464277 8.11723 -0.651987 10.7272 1.48939C13.3372 3.63077 13.8972 7.40276 12.0219 10.21ZM11.2097 6.56778C11.2097 4.00518 9.13231 1.92778 6.56971 1.92778C4.00828 1.9306 1.93253 4.00635 1.92971 6.56778C1.92971 9.13038 4.00711 11.2078 6.56971 11.2078C9.13231 11.2078 11.2097 9.13038 11.2097 6.56778Z" fill="#161829"/>
</svg>
