<svg width="32" height="32" viewBox="0 0 32 32" fill="none" xmlns="http://www.w3.org/2000/svg">
<rect width="32" height="32" rx="16" fill="white"/>
<path fill-rule="evenodd" clip-rule="evenodd" d="M20.6521 18.8455L23.6249 21.8183C24.1246 22.3182 24.1246 23.1284 23.6249 23.6282C23.1216 24.1193 22.3184 24.1193 21.815 23.6282L18.8422 20.6561C16.0356 22.5324 12.2634 21.9738 10.1211 19.3645C7.97884 16.7553 8.1652 12.9465 10.552 10.5589C12.9388 8.17122 16.7475 7.98351 19.3575 10.1249C21.9675 12.2663 22.5275 16.0383 20.6521 18.8455ZM19.84 15.2033C19.84 12.6407 17.7626 10.5633 15.2 10.5633C12.6386 10.5661 10.5628 12.6418 10.56 15.2033C10.56 17.7659 12.6374 19.8433 15.2 19.8433C17.7626 19.8433 19.84 17.7659 19.84 15.2033Z" fill="#161829"/>
</svg>
