<svg width="22" height="18" viewBox="0 0 22 18" fill="none" xmlns="http://www.w3.org/2000/svg">
<path fill-rule="evenodd" clip-rule="evenodd" d="M14.0783 0.0329784C14.271 -0.040003 14.4896 0.0106159 14.6286 0.160373L21.87 7.96477C22.0433 8.15162 22.0433 8.43698 21.87 8.62383L14.6286 16.4282C14.4896 16.578 14.271 16.6286 14.0783 16.5556C13.8857 16.4826 13.7586 16.3011 13.7586 16.0987V12.3316H6.2931C4.85714 12.3316 4.08438 12.5134 3.6739 12.7815C3.3251 13.0093 3.17241 13.3466 3.17241 13.9702V17.5177C3.17241 17.7263 3.03762 17.912 2.83653 17.9804C2.63544 18.0489 2.41216 17.9851 2.28015 17.8214C0.905452 16.1174 0.108474 14.0351 0.000592381 11.8656C0.00019753 11.8576 0 11.8497 0 11.8418C0 10.2138 0.374196 8.33929 1.34643 6.85482C2.33463 5.34595 3.93451 4.25696 6.2931 4.25696H13.7586V0.489906C13.7586 0.287515 13.8857 0.10596 14.0783 0.0329784ZM14.7586 1.75705V4.74685C14.7586 5.0174 14.5348 5.23673 14.2586 5.23673H6.2931C4.30687 5.23673 3.0102 6.12864 2.18806 7.38395C1.35216 8.66027 1.00185 10.3277 1.00001 11.8298C1.073 13.2606 1.47678 14.6491 2.17241 15.8938V13.9702C2.17241 13.1748 2.3818 12.4479 3.1192 11.9663C3.79493 11.5249 4.83252 11.3519 6.2931 11.3519H14.2586C14.5348 11.3519 14.7586 11.5712 14.7586 11.8418V14.8315L20.8243 8.2943L14.7586 1.75705Z" fill="#7A95AB"/>
</svg>
