<svg width="24" height="24" viewBox="0 0 24 24" fill="none" xmlns="http://www.w3.org/2000/svg">
<path d="M13.3414 12.1032C13.314 12.0758 13.2986 12.0386 13.2986 11.9999C13.2986 11.9612 13.314 11.924 13.3414 11.8967L18.7446 6.49405C19.0863 6.15192 19.0859 5.59762 18.7437 5.25598C18.4016 4.91433 17.8473 4.91472 17.5057 5.25685L12.1031 10.6571C12.0757 10.6846 12.0385 10.7 11.9998 10.7C11.9611 10.7 11.9239 10.6846 11.8966 10.6571L6.49395 5.25685C6.15231 4.91505 5.59826 4.91492 5.25646 5.25656C4.91465 5.5982 4.91452 6.15225 5.25617 6.49405L10.6582 11.8967C10.6856 11.924 10.701 11.9612 10.701 11.9999C10.701 12.0386 10.6856 12.0758 10.6582 12.1032L5.25617 17.5063C5.03516 17.7275 4.94891 18.0497 5.02989 18.3516C5.11087 18.6536 5.34679 18.8894 5.64878 18.9702C5.95077 19.0511 6.27294 18.9647 6.49395 18.7435L11.8966 13.3403C11.9239 13.3129 11.9611 13.2975 11.9998 13.2975C12.0385 13.2975 12.0757 13.3129 12.1031 13.3403L17.5057 18.7435C17.8473 19.0853 18.4013 19.0855 18.7431 18.7438C19.085 18.4022 19.0851 17.8481 18.7434 17.5063L13.3414 12.1032Z" fill="#C8CEE5"/>
</svg>
